<?xml version="1.0" encoding="iso-8859-1"?>
<!-- Uploaded to: SVG Repo, www.svgrepo.com, Generator: SVG Repo Mixer Tools -->
<svg version="1.1" id="Layer_1" xmlns="http://www.w3.org/2000/svg" xmlns:xlink="http://www.w3.org/1999/xlink" 
	 viewBox="0 0 392.663 392.663" xml:space="preserve">
<path style="fill:#FFFFFF;" d="M360.016,112.808c6.012,0,10.925-4.848,10.925-10.925V32.711c0-6.012-4.848-10.925-10.925-10.925
	H32.84c-6.012,0-10.925,4.848-10.925,10.925v69.236c0,6.012,4.848,10.925,10.925,10.925h327.176V112.808z"/>
<path style="fill:#FFC10D;" d="M360.016,225.681c6.012,0,10.925-4.848,10.925-10.925v-69.172c0-6.012-4.848-10.925-10.925-10.925
	H32.84c-6.012,0-10.925,4.848-10.925,10.925v69.236c0,6.012,4.848,10.925,10.925,10.925h327.176V225.681z"/>
<rect x="169.697" y="317.285" style="fill:#56ACE0;" width="53.463" height="53.463"/>
<g>
	<path style="fill:#194F82;" d="M392.598,32.711C392.598,14.675,377.923,0,359.887,0H32.776C14.739,0,0.065,14.675,0.065,32.711
		v69.236c0,8.339,3.168,15.968,8.404,21.786c-5.236,5.883-8.404,13.446-8.404,21.851v69.236c0,18.036,14.675,32.711,32.711,32.711
		h152.695v47.903h-26.764c-6.012,0-10.925,4.848-10.925,10.925v26.764H10.925C4.913,333.123,0,337.972,0,344.049
		c0,6.012,4.848,10.925,10.925,10.925h136.857v26.764c0,6.012,4.848,10.925,10.925,10.925h75.248
		c6.012,0,10.925-4.849,10.925-10.925v-26.764h136.857c6.012,0,10.925-4.848,10.925-10.925s-4.848-10.925-10.925-10.925H244.881
		V306.36c0-6.012-4.848-10.925-10.925-10.925h-26.764v-47.903h152.695c18.036,0,32.711-14.675,32.711-32.711v-69.236
		c0-8.339-3.168-15.968-8.404-21.786c5.172-5.818,8.404-13.446,8.404-21.786V32.711L392.598,32.711z M223.095,370.747h-53.463
		v-53.463h53.463L223.095,370.747L223.095,370.747z M370.812,214.82c0,6.012-4.848,10.925-10.925,10.925H32.776
		c-6.012,0-10.925-4.848-10.925-10.925v-69.236c0-6.012,4.848-10.925,10.925-10.925h327.111c6.012,0,10.925,4.848,10.925,10.925
		V214.82L370.812,214.82z M370.812,101.947c0,6.012-4.848,10.925-10.925,10.925H32.776c-6.012,0-10.925-4.848-10.925-10.925V32.711
		c0-6.012,4.848-10.925,10.925-10.925h327.111c6.012,0,10.925,4.848,10.925,10.925V101.947L370.812,101.947z"/>
	<path style="fill:#194F82;" d="M72.146,40.727c-6.012,0-10.925,4.848-10.925,10.925v31.354c0,6.012,4.848,10.925,10.925,10.925
		s10.925-4.848,10.925-10.925V51.653C83.071,45.576,78.158,40.727,72.146,40.727z"/>
	<path style="fill:#194F82;" d="M123.087,40.727c-6.012,0-10.925,4.848-10.925,10.925v31.354c0,6.012,4.848,10.925,10.925,10.925
		c6.077,0,10.925-4.848,10.925-10.925V51.653C133.948,45.576,129.099,40.727,123.087,40.727z"/>
	<path style="fill:#194F82;" d="M320.517,56.372h-31.354c-6.012,0-10.925,4.848-10.925,10.925c0,6.012,4.848,10.925,10.925,10.925
		h31.354c6.012,0,10.925-4.848,10.925-10.925C331.378,61.285,326.529,56.372,320.517,56.372z"/>
	<path style="fill:#194F82;" d="M72.146,153.6c-6.012,0-10.925,4.848-10.925,10.925v31.354c0,6.012,4.848,10.925,10.925,10.925
		s10.925-4.848,10.925-10.925v-31.354C83.071,158.448,78.158,153.6,72.146,153.6z"/>
	<path style="fill:#194F82;" d="M123.087,153.6c-6.012,0-10.925,4.848-10.925,10.925v31.354c0,6.012,4.848,10.925,10.925,10.925
		c6.077,0,10.925-4.848,10.925-10.925v-31.354C133.948,158.448,129.099,153.6,123.087,153.6z"/>
	<path style="fill:#194F82;" d="M320.517,169.309h-31.354c-6.012,0-10.925,4.848-10.925,10.925c0,6.012,4.848,10.925,10.925,10.925
		h31.354c6.012,0,10.925-4.848,10.925-10.925C331.378,174.158,326.529,169.309,320.517,169.309z"/>
</g>
</svg>